<svg width="128" height="162" viewBox="0 0 128 162" fill="none" xmlns="http://www.w3.org/2000/svg">
<path d="M64.0031 161.832C89.7141 161.832 110.557 159.347 110.557 156.282C110.557 153.217 89.7141 150.733 64.0031 150.733C38.2921 150.733 17.4492 153.217 17.4492 156.282C17.4492 159.347 38.2921 161.832 64.0031 161.832Z" fill="#DBDBDB"/>
<path d="M66.6495 142.094L79.8526 134.908C109.507 118.767 128 87.4704 128 53.4245V19.0529C128 16.3772 125.902 14.1562 123.256 14.0836C92.0554 13.2289 72.6993 4.12476 66.3281 0.600809C64.8802 -0.20027 63.1202 -0.20027 61.6719 0.600809C55.3007 4.12476 35.9446 13.2286 4.74355 14.0836C2.09762 14.1562 0 16.3772 0 19.0529V53.4245C0 87.4704 18.4928 118.767 48.1474 134.908L61.3505 142.094C63.0044 142.995 64.9956 142.995 66.6495 142.094Z" fill="#D9D9D9"/>
<path d="M121.672 23.0991V52.2673C121.672 84.7365 104.121 114.455 75.8713 129.835L66.5054 134.93C65.7266 135.353 64.8633 135.569 64 135.569C63.1368 135.569 62.2735 135.353 61.4947 134.93L52.1288 129.835C23.8792 114.455 6.32812 84.7365 6.32812 52.2673V23.0991C6.32812 21.7195 7.42008 20.5894 8.79536 20.492C35.3733 18.6849 53.6223 11.6424 62.857 7.1311C63.2252 6.94916 63.6103 6.86035 63.9997 6.86035C64.3891 6.86035 64.7741 6.94916 65.1423 7.1311C74.377 11.6427 92.6303 18.6849 119.204 20.492C120.58 20.5894 121.672 21.7195 121.672 23.0991Z" fill="#3D561F"/>
<path d="M121.672 23.0991V52.2673C121.672 84.7365 104.121 114.455 75.8713 129.835L66.5053 134.93C65.7266 135.353 64.8633 135.569 64 135.569V6.86035C64.3894 6.86035 64.7745 6.94916 65.1427 7.1311C74.3774 11.6427 92.6306 18.6849 119.204 20.492C120.58 20.5894 121.672 21.7195 121.672 23.0991Z" fill="#3D561F"/>
<path d="M85.9299 59.6743H42.0676C39.4562 59.6743 37.3359 61.7946 37.3359 64.406V99.3806C37.3359 101.992 39.4562 104.112 42.0676 104.112H85.9299C88.5413 104.112 90.6616 101.992 90.6616 99.3806V64.406C90.6612 61.7946 88.541 59.6743 85.9299 59.6743ZM68.231 84.1108V87.6067C68.231 89.9427 66.3351 91.839 63.9988 91.839C61.6624 91.839 59.7665 89.9431 59.7665 87.6067V84.1108C57.9677 82.8074 56.8038 80.6868 56.8038 78.2958C56.8038 74.3217 60.0247 71.1012 63.9984 71.1012C67.9722 71.1012 71.193 74.3217 71.193 78.2958C71.1934 80.6872 70.0295 82.8074 68.231 84.1108Z" fill="white"/>
<path d="M79.6581 46.571V52.0559C79.6581 53.9259 78.1423 55.4418 76.2723 55.4418C74.4022 55.4418 72.8864 53.9259 72.8864 52.0559V46.7892C72.8864 41.9763 69.1506 37.8716 64.3413 37.6901C59.2853 37.4991 55.1113 41.5567 55.1113 46.5713V56.2885H48.3398V46.8262C48.3398 38.2923 55.0638 31.1319 63.5949 30.9172C68.0803 30.8043 72.1468 32.5762 75.0703 35.4997C77.906 38.3351 79.6581 42.2456 79.6581 46.571Z" fill="white"/>
</svg>
